<?xml version="1.0" standalone="no"?>
<!DOCTYPE svg PUBLIC "-//W3C//DTD SVG 20010904//EN"
 "http://www.w3.org/TR/2001/REC-SVG-20010904/DTD/svg10.dtd">
<svg version="1.0" xmlns="http://www.w3.org/2000/svg"
 width="512.000000pt" height="512.000000pt" viewBox="0 0 512.000000 512.000000"
 preserveAspectRatio="xMidYMid meet">

<g transform="translate(0.000000,512.000000) scale(0.100000,-0.100000)"
fill="#000000" stroke="none">
<path d="M1260 4785 c-227 -36 -442 -147 -610 -315 -171 -171 -280 -385 -315
-620 -22 -141 -22 -2439 0 -2580 74 -488 463 -869 960 -940 95 -13 2435 -13
2530 0 263 38 525 176 688 363 152 174 244 376 277 602 13 95 13 2435 0 2530
-52 366 -269 676 -588 843 -123 64 -226 99 -349 117 -138 21 -2461 20 -2593 0z
m2610 -327 c162 -49 272 -111 374 -214 71 -71 147 -184 176 -262 58 -155 55
-66 55 -1422 0 -1356 3 -1267 -55 -1422 -66 -177 -261 -372 -438 -438 -156
-58 -61 -54 -1377 -58 -1296 -3 -1293 -4 -1436 47 -202 72 -398 259 -469 449
-58 155 -55 66 -55 1422 0 1356 -3 1267 55 1422 70 186 263 374 458 445 143
53 107 51 1427 50 1116 -2 1235 -4 1285 -19z"/>
<path d="M2495 3506 c-37 -17 -70 -52 -84 -89 -7 -18 -11 -150 -11 -362 l0
-334 -349 -3 c-335 -3 -351 -4 -377 -24 -53 -39 -69 -71 -69 -134 0 -63 16
-95 69 -134 26 -20 42 -21 376 -24 l349 -3 3 -349 c3 -334 4 -350 24 -376 39
-53 71 -69 134 -69 63 0 95 16 134 69 20 26 21 42 24 376 l3 349 349 3 c334 3
350 4 376 24 53 39 69 71 69 134 0 63 -16 95 -69 134 -26 20 -42 21 -376 24
l-349 3 -3 349 c-3 334 -4 350 -24 376 -11 15 -32 37 -46 47 -34 25 -113 32
-153 13z"/>
</g>
</svg>
