<?xml version="1.0" standalone="no"?>
<!DOCTYPE svg PUBLIC "-//W3C//DTD SVG 20010904//EN"
 "http://www.w3.org/TR/2001/REC-SVG-20010904/DTD/svg10.dtd">
<svg version="1.0" xmlns="http://www.w3.org/2000/svg"
 width="512.000000pt" height="512.000000pt" viewBox="0 0 512.000000 512.000000"
 preserveAspectRatio="xMidYMid meet">

<g transform="translate(0.000000,512.000000) scale(0.100000,-0.100000)"
fill="#000000" stroke="none">
<path d="M2265 4703 c-632 -85 -1207 -461 -1550 -1014 -201 -324 -315 -722
-315 -1100 l0 -129 -160 0 -160 0 -36 -33 c-46 -42 -56 -105 -26 -152 32 -48
750 -867 759 -865 11 2 730 826 755 865 30 47 20 111 -26 152 l-36 33 -186 0
-187 0 6 158 c14 382 154 701 426 972 277 276 594 414 981 427 140 4 184 2
288 -16 261 -44 484 -145 686 -310 l80 -65 34 40 c18 21 121 141 228 266 l194
228 -73 60 c-175 147 -453 307 -658 378 -127 45 -318 90 -452 107 -147 19
-424 18 -572 -2z"/>
<path d="M3970 3090 c-206 -237 -381 -442 -388 -457 -23 -43 -9 -102 32 -140
l36 -33 185 0 186 0 -6 -47 c-49 -368 -178 -637 -425 -884 -226 -226 -479
-356 -795 -411 -100 -17 -146 -19 -280 -15 -294 10 -531 86 -764 242 -81 54
-85 56 -102 38 -10 -10 -112 -128 -228 -263 -194 -228 -208 -246 -193 -263 26
-29 232 -163 332 -216 599 -315 1344 -323 1955 -21 231 114 410 245 595 437
275 283 449 592 544 965 31 122 66 338 66 409 l0 29 160 0 160 0 36 33 c46 41
56 105 26 152 -14 22 -689 801 -751 867 -4 4 -175 -186 -381 -422z"/>
</g>
</svg>
