<?xml version="1.0" standalone="no"?>
<!DOCTYPE svg PUBLIC "-//W3C//DTD SVG 20010904//EN"
 "http://www.w3.org/TR/2001/REC-SVG-20010904/DTD/svg10.dtd">
<svg version="1.0" xmlns="http://www.w3.org/2000/svg"
 width="512.000000pt" height="512.000000pt" viewBox="0 0 512.000000 512.000000"
 preserveAspectRatio="xMidYMid meet">

<g transform="translate(0.000000,512.000000) scale(0.100000,-0.100000)"
fill="#000000" stroke="none">
<path d="M1855 4786 c-16 -7 -38 -22 -47 -32 -24 -27 -48 -88 -48 -121 0 -15
39 -108 87 -205 l87 -177 -60 -63 c-83 -88 -126 -150 -179 -259 -53 -112 -83
-222 -92 -340 l-6 -86 -54 -23 c-82 -34 -165 -101 -218 -174 -26 -36 -49 -66
-52 -66 -3 0 -98 62 -210 138 l-205 137 -58 0 c-63 0 -95 -16 -134 -69 -29
-38 -29 -133 -1 -173 16 -21 356 -261 444 -312 11 -7 7 -28 -23 -112 -52 -145
-94 -324 -107 -454 -6 -60 -13 -120 -15 -132 -4 -22 -5 -22 -273 -25 -254 -3
-271 -4 -297 -24 -53 -39 -69 -71 -69 -134 0 -63 16 -95 69 -134 26 -20 45
-21 304 -26 l276 -5 13 -89 c16 -109 62 -285 104 -395 l32 -83 -231 -232
c-127 -127 -236 -244 -242 -259 -27 -73 0 -147 69 -194 37 -25 91 -30 138 -13
15 6 117 99 225 208 109 108 199 194 201 192 2 -3 25 -36 52 -75 230 -328 583
-554 985 -631 140 -26 352 -25 497 4 397 79 760 315 974 634 23 34 44 65 46
67 2 3 92 -83 201 -191 162 -161 205 -198 240 -209 111 -32 219 70 198 188 -7
33 -39 70 -243 274 l-235 236 35 94 c43 114 84 273 101 389 l12 85 276 5 c259
5 278 6 304 26 53 39 69 71 69 134 0 63 -16 95 -69 134 -26 20 -43 21 -297 24
-268 3 -269 3 -273 25 -2 12 -9 72 -15 132 -13 130 -55 309 -107 454 -30 84
-34 105 -23 112 88 51 428 291 444 312 28 40 28 135 -1 173 -39 52 -71 69
-133 69 -58 0 -59 0 -265 -137 -113 -76 -208 -138 -210 -138 -2 0 -25 29 -51
65 -56 79 -121 132 -208 170 l-64 28 -7 86 c-16 220 -103 419 -255 583 l-74
80 87 176 c56 115 86 188 86 210 -1 134 -159 211 -259 126 -19 -16 -61 -87
-112 -186 -73 -145 -83 -159 -102 -154 -163 48 -172 49 -327 49 -155 0 -163
-1 -327 -49 -20 -5 -29 8 -101 152 -44 88 -90 169 -103 181 -47 43 -116 54
-174 29z m840 -641 c181 -38 349 -168 433 -335 41 -82 71 -191 72 -257 l0 -33
-640 0 -640 0 0 33 c1 65 31 174 71 257 126 255 419 395 704 335z m-295 -2219
l0 -1273 -50 9 c-148 27 -338 112 -472 213 -585 439 -770 1333 -421 2030 53
105 121 212 154 245 51 48 62 49 437 50 l352 0 0 -1274z m1067 1253 c49 -24
119 -121 196 -274 349 -696 163 -1591 -421 -2030 -134 -101 -324 -186 -472
-213 l-50 -9 0 1273 0 1274 352 0 c336 0 354 -1 395 -21z"/>
</g>
</svg>
