<?xml version="1.0" standalone="no"?>
<!DOCTYPE svg PUBLIC "-//W3C//DTD SVG 20010904//EN"
 "http://www.w3.org/TR/2001/REC-SVG-20010904/DTD/svg10.dtd">
<svg version="1.0" xmlns="http://www.w3.org/2000/svg"
 width="512.000000pt" height="512.000000pt" viewBox="0 0 512.000000 512.000000"
 preserveAspectRatio="xMidYMid meet">

<g transform="translate(0.000000,512.000000) scale(0.100000,-0.100000)"
fill="#000000" stroke="none">
<path d="M878 4830 c-293 -73 -518 -299 -588 -593 -19 -80 -20 -124 -20 -1677
0 -1553 1 -1597 20 -1677 71 -297 297 -522 594 -593 78 -19 130 -20 1676 -20
1553 0 1597 1 1677 20 297 71 522 297 593 594 19 77 20 125 20 1060 0 971 0
979 -21 1015 -33 58 -65 76 -136 76 -70 0 -104 -19 -138 -76 -20 -33 -20 -57
-25 -1019 l-5 -985 -23 -56 c-60 -150 -167 -247 -321 -293 -49 -14 -210 -16
-1621 -16 -1715 0 -1604 -4 -1724 57 -64 32 -157 125 -189 189 -61 120 -57 9
-57 1724 0 1411 2 1572 16 1621 46 154 143 261 293 321 l56 23 985 5 c962 5
986 5 1019 25 49 29 73 67 79 123 5 57 -20 112 -66 147 -27 20 -44 20 -1022
22 -947 2 -999 1 -1072 -17z"/>
<path d="M4050 4830 c-30 -11 -57 -20 -59 -20 -3 0 -538 -532 -1188 -1182
l-1182 -1182 -97 -290 -96 -289 4 -86 c5 -105 38 -180 108 -245 76 -71 140
-99 241 -104 l85 -4 295 97 294 97 1165 1166 c1325 1327 1225 1213 1225 1387
0 155 -13 177 -248 413 -231 232 -267 255 -407 260 -65 2 -98 -2 -140 -18z
m318 -463 c123 -123 162 -168 162 -187 0 -19 -42 -67 -175 -200 l-175 -175
-187 188 -188 187 175 175 c134 134 181 175 200 175 19 0 64 -38 188 -163z
m-1253 -1627 l-835 -835 -233 -78 c-128 -42 -242 -77 -253 -77 -26 0 -44 18
-44 44 0 12 34 124 76 251 l76 230 837 837 836 838 187 -187 188 -188 -835
-835z"/>
</g>
</svg>
