<?xml version="1.0" standalone="no"?>
<!DOCTYPE svg PUBLIC "-//W3C//DTD SVG 20010904//EN"
 "http://www.w3.org/TR/2001/REC-SVG-20010904/DTD/svg10.dtd">
<svg version="1.0" xmlns="http://www.w3.org/2000/svg"
 width="512.000000pt" height="512.000000pt" viewBox="0 0 512.000000 512.000000"
 preserveAspectRatio="xMidYMid meet">

<g transform="translate(0.000000,512.000000) scale(0.100000,-0.100000)"
fill="#000000" stroke="none">
<path d="M3010 5104 c-41 -27 -1710 -1697 -1726 -1726 -18 -35 -18 -72 1 -108
31 -60 33 -60 492 -60 l419 0 -3 -42 c-27 -386 -103 -677 -263 -1003 -127
-260 -281 -476 -485 -680 -132 -132 -239 -220 -399 -326 -174 -116 -433 -243
-611 -299 -113 -36 -146 -52 -160 -80 -31 -59 -10 -138 42 -158 43 -18 145
-39 278 -59 150 -22 560 -25 705 -4 225 31 450 87 644 159 l100 38 41 -81 c68
-137 193 -300 248 -323 45 -20 92 -7 141 38 48 44 101 70 144 70 73 0 150 -48
183 -113 18 -35 20 -50 14 -106 -14 -122 -12 -139 21 -171 44 -45 142 -63 334
-64 322 -2 408 45 373 200 -18 79 -6 129 43 184 39 43 86 63 149 62 58 -2 92
-16 141 -62 80 -74 137 -63 225 43 103 122 178 255 224 394 23 71 25 87 15
117 -12 38 -52 76 -79 76 -10 0 -41 12 -69 26 -112 56 -142 189 -65 292 25 33
89 72 120 72 36 0 82 38 93 77 10 33 9 48 -10 103 -52 159 -169 356 -274 462
-33 34 -43 38 -85 38 -42 0 -54 -5 -94 -40 -54 -48 -103 -70 -154 -70 -46 0
-110 29 -140 61 l-21 24 50 90 c158 283 266 624 300 942 l12 112 439 3 439 3
29 33 c31 35 38 85 18 125 -16 31 -1698 1715 -1731 1733 -36 19 -78 18 -108
-2z m1118 -1674 c-261 -4 -359 -8 -375 -18 -39 -22 -52 -64 -63 -205 -16 -218
-52 -393 -117 -581 -55 -157 -93 -237 -112 -232 -90 26 -123 30 -276 30 -245
0 -345 -23 -380 -89 -17 -30 -17 -39 -5 -103 7 -38 10 -85 6 -105 -14 -73 -73
-129 -157 -148 -60 -14 -111 4 -173 60 -65 59 -95 68 -144 44 -79 -39 -224
-247 -294 -422 -63 -161 -47 -221 70 -254 102 -28 163 -120 148 -222 -5 -29
-17 -57 -34 -75 -48 -52 -329 -177 -527 -235 -237 -69 -407 -95 -665 -101
l-205 -5 115 61 c552 296 995 769 1247 1333 146 327 228 671 240 1013 6 188 3
202 -50 234 -30 19 -53 20 -372 20 l-340 0 705 705 705 705 703 -702 702 -703
-352 -5z m-852 -1248 c6 -4 17 -38 23 -77 40 -233 218 -376 450 -363 66 4 92
11 142 37 l62 32 23 -28 c25 -31 104 -175 104 -189 0 -5 -23 -24 -51 -43 -126
-86 -196 -253 -170 -408 21 -124 83 -218 196 -298 l28 -21 -41 -79 c-23 -44
-52 -93 -64 -108 l-23 -28 -60 28 c-55 25 -70 28 -175 28 -111 0 -118 -1 -183
-33 -128 -63 -216 -184 -238 -327 -6 -39 -16 -73 -23 -77 -6 -4 -56 -8 -111
-8 -55 0 -105 4 -111 8 -6 4 -16 40 -23 81 -16 99 -53 175 -120 242 -125 125
-308 156 -474 82 -56 -25 -58 -26 -72 -7 -29 39 -105 180 -105 194 1 8 21 28
45 43 85 54 154 165 176 282 27 147 -62 344 -186 410 -30 17 -35 24 -30 45 8
30 90 174 109 189 10 8 28 4 72 -16 54 -26 69 -28 174 -28 106 0 120 2 172 28
129 63 217 185 240 331 9 52 17 77 28 80 27 7 205 6 216 -2z"/>
<path d="M3118 1619 c-117 -13 -237 -99 -291 -210 -121 -246 44 -536 316 -556
359 -27 553 402 297 657 -88 89 -190 124 -322 109z m148 -244 c96 -63 80 -221
-29 -274 -55 -27 -82 -26 -137 2 -50 24 -90 88 -90 141 0 41 36 111 68 132 53
35 134 35 188 -1z"/>
</g>
</svg>
